<svg width="12" height="12" viewBox="0 0 12 12" fill="none" xmlns="http://www.w3.org/2000/svg">
<path fill-rule="evenodd" clip-rule="evenodd" d="M10.2426 10.2426C9.11742 11.3679 7.5913 12 6 12C4.4087 12 2.88258 11.3679 1.75736 10.2426C0.632141 9.11742 0 7.5913 0 6C0 4.4087 0.632141 2.88258 1.75736 1.75736C2.88258 0.632141 4.4087 0 6 0C7.5913 0 9.11742 0.632141 10.2426 1.75736C11.3679 2.88258 12 4.4087 12 6C12 7.5913 11.3679 9.11742 10.2426 10.2426ZM9.71231 9.71231C10.6969 8.72774 11.25 7.39239 11.25 6C11.25 4.60761 10.6969 3.27226 9.71231 2.28769C8.72774 1.30312 7.39239 0.75 6 0.75C4.60761 0.75 3.27226 1.30312 2.28769 2.28769C1.30312 3.27226 0.75 4.60761 0.75 6C0.75 7.39239 1.30312 8.72774 2.28769 9.71231C3.27226 10.6969 4.60761 11.25 6 11.25C7.39239 11.25 8.72774 10.6969 9.71231 9.71231ZM5.89016 2.35984C5.96049 2.43016 6 2.52554 6 2.625V6.5325L8.436 7.9245C8.51984 7.97508 8.58058 8.05645 8.60522 8.15122C8.62987 8.24598 8.61647 8.34663 8.56789 8.43165C8.5193 8.51667 8.4394 8.57931 8.34524 8.60619C8.25108 8.63307 8.15014 8.62206 8.064 8.5755L5.439 7.0755C5.3816 7.04272 5.33389 6.99534 5.3007 6.93818C5.26751 6.88102 5.25002 6.8161 5.25 6.75V2.625C5.25 2.52554 5.28951 2.43016 5.35984 2.35984C5.43016 2.28951 5.52554 2.25 5.625 2.25C5.72446 2.25 5.81984 2.28951 5.89016 2.35984Z" fill="black"/>
</svg>
